<svg width="18" height="18" viewBox="0 0 18 18" fill="none" xmlns="http://www.w3.org/2000/svg">
<path d="M7.3358 6.12005C6.75375 6.12005 6.28918 6.34114 5.94208 6.78331C5.59499 7.22549 5.42144 7.81593 5.42144 8.55462C5.42144 9.28812 5.59232 9.87595 5.93407 10.3181C6.28117 10.7551 6.74574 10.9736 7.32779 10.9736C7.92052 10.9736 8.3931 10.7499 8.74553 10.3025C9.09797 9.85514 9.27418 9.2595 9.27418 8.51561C9.27418 7.78211 9.10064 7.19948 8.75354 6.76771C8.40645 6.33593 7.93387 6.12005 7.3358 6.12005ZM7.59211 2C8.82563 2 9.92832 2.2419 10.9002 2.72569C11.8774 3.20948 12.6383 3.89356 13.183 4.77791C13.7277 5.66226 14 6.67147 14 7.80552C14 9.05402 13.749 10.045 13.2471 10.7785C12.7451 11.512 12.0563 11.8788 11.1805 11.8788C10.6999 11.8788 10.2888 11.7487 9.94701 11.4886C9.6106 11.2233 9.41302 10.8748 9.35428 10.443H9.29821C9.11666 10.8904 8.84432 11.2337 8.48121 11.473C8.12343 11.7071 7.69624 11.8241 7.19963 11.8241C6.37194 11.8241 5.70179 11.5224 5.18916 10.919C4.68186 10.3103 4.42822 9.51441 4.42822 8.53121C4.42822 7.57403 4.68453 6.79372 5.19717 6.19028C5.71514 5.58683 6.38262 5.28511 7.19963 5.28511C7.6642 5.28511 8.08071 5.39956 8.44917 5.62845C8.82296 5.85734 9.08462 6.16166 9.23413 6.54142H9.2902V5.44118H10.2193V9.90456C10.2193 10.2687 10.3155 10.5574 10.5077 10.7707C10.6999 10.9788 10.9749 11.0828 11.3327 11.0828C11.8774 11.0828 12.3126 10.7915 12.6383 10.2089C12.9641 9.62625 13.1269 8.81993 13.1269 7.78992C13.1269 6.30212 12.6063 5.09524 11.565 4.16927C10.5237 3.2381 9.1754 2.77251 7.52002 2.77251C6.4467 2.77251 5.48018 3.01701 4.62046 3.506C3.76073 3.995 3.0879 4.67647 2.60197 5.55042C2.12138 6.42437 1.88108 7.41016 1.88108 8.5078C1.88108 9.67827 2.13206 10.7005 2.63401 11.5744C3.13596 12.4432 3.82214 13.1012 4.69254 13.5486C5.56295 14.0012 6.55884 14.2275 7.68022 14.2275C8.86034 14.2275 9.74677 14.113 10.3395 13.8842V14.6567C9.66133 14.8856 8.77223 15 7.67221 15C6.37462 15 5.22387 14.7425 4.21996 14.2275C3.2214 13.7177 2.43376 12.966 1.85705 11.9724C1.28568 10.9788 1 9.81353 1 8.47659C1 7.52981 1.16287 6.65586 1.4886 5.85474C1.81434 5.04842 2.26556 4.36435 2.84227 3.80252C3.41898 3.23549 4.11583 2.79332 4.93284 2.47599C5.74985 2.15866 6.63627 2 7.59211 2Z" fill="#8B95BB"/>
<path d="M12 13.5L16.5 13.5" stroke="#8B95BB" stroke-linecap="round"/>
<path d="M14.25 15.75L14.25 11.25" stroke="#8B95BB" stroke-linecap="round"/>
</svg>
