<svg width="24" height="24" viewBox="0 0 24 24" fill="none" xmlns="http://www.w3.org/2000/svg">
<g clip-path="url(#clip0_7_8294)">
<path d="M24 8H0V0.631603C0 0.282819 0.185297 0 0.413812 0H23.5862C23.8147 0 24 0.282819 24 0.631603L24 8Z" fill="#2D334D"/>
<path d="M23.5862 24H0.413813C0.185297 24 0 23.7172 0 23.3684V16H24V23.3684C24 23.7172 23.8147 24 23.5862 24Z" fill="#87A848"/>
<path d="M24 8H0V16H24V8Z" fill="#F5F5F5"/>
<path d="M0.149703 24L13.9021 12.2589C14.0326 12.1475 14.0326 11.8524 13.9021 11.741L0.149703 0C0.0602765 0.117326 0 0.287336 0 0.485029V23.5149C0 23.7127 0.0602765 23.8827 0.149703 24Z" fill="url(#paint0_linear_7_8294)"/>
<path d="M4.5521 11.0228L4.88079 11.5098L5.64307 11.3817C5.69068 11.3737 5.73008 11.4074 5.7081 11.4374L5.35567 11.9166L5.97758 12.2438C6.01642 12.2643 6.00232 12.3064 5.95434 12.3133L5.18616 12.4238L5.19938 12.96C5.2002 12.9935 5.14319 13.0122 5.10542 12.9909L4.49999 12.6496L3.89455 12.9909C3.85672 13.0123 3.79978 12.9935 3.80059 12.96L3.81381 12.4238L3.04563 12.3133C2.99765 12.3064 2.98362 12.2643 3.02239 12.2438L3.6443 11.9166L3.29188 11.4374C3.26989 11.4074 3.30929 11.3737 3.3569 11.3817L4.11919 11.5098L4.44787 11.0228C4.46829 10.9924 4.53156 10.9924 4.5521 11.0228Z" fill="#F5F5F5"/>
</g>
<rect x="0.5" y="0.5" width="23" height="23" rx="7.5" stroke="#CCD0E1"/>
<defs>
<linearGradient id="paint0_linear_7_8294" x1="0" y1="0" x2="20.8912" y2="12.1865" gradientUnits="userSpaceOnUse">
<stop stop-color="#E55C61"/>
<stop offset="1" stop-color="#E57A61"/>
</linearGradient>
<clipPath id="clip0_7_8294">
<rect width="24" height="24" rx="8" fill="white"/>
</clipPath>
</defs>
</svg>
