<svg width="18" height="18" viewBox="0 0 18 18" fill="none" xmlns="http://www.w3.org/2000/svg">
<path d="M7.93066 6.86426C7.39844 6.86426 6.97363 7.07178 6.65625 7.48682C6.33887 7.90186 6.18018 8.45605 6.18018 9.14941C6.18018 9.83789 6.33643 10.3896 6.64893 10.8047C6.96631 11.2148 7.39111 11.4199 7.92334 11.4199C8.46533 11.4199 8.89746 11.21 9.21973 10.79C9.54199 10.3701 9.70312 9.81104 9.70312 9.11279C9.70312 8.42432 9.54443 7.87744 9.22705 7.47217C8.90967 7.06689 8.47754 6.86426 7.93066 6.86426ZM8.16504 2.99707C9.29297 2.99707 10.3013 3.22412 11.1899 3.67822C12.0835 4.13232 12.7793 4.77441 13.2773 5.60449C13.7754 6.43457 14.0244 7.38184 14.0244 8.44629C14.0244 9.61816 13.7949 10.5483 13.3359 11.2368C12.877 11.9253 12.2471 12.2695 11.4463 12.2695C11.0068 12.2695 10.6309 12.1475 10.3184 11.9033C10.0107 11.6543 9.83008 11.3271 9.77637 10.9219H9.7251C9.55908 11.3418 9.31006 11.6641 8.97803 11.8887C8.65088 12.1084 8.26025 12.2183 7.80615 12.2183C7.04932 12.2183 6.43652 11.9351 5.96777 11.3687C5.50391 10.7974 5.27197 10.0503 5.27197 9.12744C5.27197 8.229 5.50635 7.49658 5.9751 6.93018C6.44873 6.36377 7.05908 6.08057 7.80615 6.08057C8.23096 6.08057 8.61182 6.18799 8.94873 6.40283C9.29053 6.61768 9.52979 6.90332 9.6665 7.25977H9.71777V6.22705H10.5674V10.4165C10.5674 10.7583 10.6553 11.0293 10.8311 11.2295C11.0068 11.4248 11.2583 11.5225 11.5854 11.5225C12.0835 11.5225 12.4814 11.249 12.7793 10.7021C13.0771 10.1553 13.2261 9.39844 13.2261 8.43164C13.2261 7.03516 12.75 5.90234 11.7979 5.0332C10.8457 4.15918 9.61279 3.72217 8.09912 3.72217C7.11768 3.72217 6.23389 3.95166 5.44775 4.41064C4.66162 4.86963 4.04639 5.50928 3.60205 6.32959C3.1626 7.1499 2.94287 8.0752 2.94287 9.10547C2.94287 10.2041 3.17236 11.1636 3.63135 11.9839C4.09033 12.7993 4.71777 13.417 5.51367 13.8369C6.30957 14.2617 7.22021 14.4741 8.24561 14.4741C9.32471 14.4741 10.1353 14.3667 10.6772 14.1519V14.877C10.0571 15.0918 9.24414 15.1992 8.23828 15.1992C7.05176 15.1992 5.99951 14.9575 5.08154 14.4741C4.16846 13.9956 3.44824 13.29 2.9209 12.3574C2.39844 11.4248 2.13721 10.3311 2.13721 9.07617C2.13721 8.1875 2.28613 7.36719 2.58398 6.61523C2.88184 5.8584 3.29443 5.21631 3.82178 4.68896C4.34912 4.15674 4.98633 3.7417 5.7334 3.44385C6.48047 3.146 7.29102 2.99707 8.16504 2.99707Z" fill="#505F8D"/>
</svg>
