<svg width="63" height="48" viewBox="0 0 63 48" fill="none" xmlns="http://www.w3.org/2000/svg">
<path d="M24.6192 4.87996C25.2788 2.02191 27.7987 0 30.7012 0H34.6673L29.5481 22.1839C28.8885 25.0419 26.3686 27.0638 23.4661 27.0638H19.5L24.6192 4.87996Z" fill="url(#paint0_linear_19_6550)"/>
<path d="M30.5663 22.5429C31.3588 19.8718 33.7902 18.0426 36.5482 18.0426H43.5L42.1586 22.5635C41.3661 25.2346 38.9347 27.0638 36.1767 27.0638H29.2249L30.5663 22.5429Z" fill="url(#paint1_linear_19_6550)"/>
<path d="M5.51855 41.8431V43.0638H0.962891V36.0179H2.4375V41.8431H5.51855ZM8.54102 38.7718C8.23177 38.7718 7.97298 38.8776 7.76465 39.0892C7.55957 39.3008 7.44401 39.571 7.41797 39.8998H9.63965C9.62337 39.5645 9.51432 39.2927 9.3125 39.0843C9.11393 38.876 8.85677 38.7718 8.54102 38.7718ZM9.65918 41.4623H10.9678C10.8896 41.9766 10.6325 42.3916 10.1963 42.7074C9.76335 43.0199 9.22461 43.1761 8.58008 43.1761C7.77604 43.1761 7.14453 42.9352 6.68555 42.4535C6.22982 41.9717 6.00195 41.3109 6.00195 40.4711C6.00195 39.6345 6.22982 38.9671 6.68555 38.4691C7.14128 37.9678 7.75488 37.7171 8.52637 37.7171C9.28483 37.7171 9.88867 37.9548 10.3379 38.43C10.7871 38.9053 11.0117 39.5417 11.0117 40.3392V40.7738H7.40332V40.8617C7.40332 41.236 7.51237 41.5404 7.73047 41.7748C7.95182 42.0059 8.24316 42.1214 8.60449 42.1214C8.86491 42.1214 9.08952 42.0629 9.27832 41.9457C9.46712 41.8252 9.59408 41.6641 9.65918 41.4623ZM13.8242 41.2474H13.7949L12.8135 43.0638H11.3145L12.9551 40.4564L11.3242 37.8295H12.9307L13.873 39.597H13.9023L14.8301 37.8295H16.3828L14.7471 40.4173L16.3682 43.0638H14.8203L13.8242 41.2474ZM19.1562 38.7718C18.847 38.7718 18.5882 38.8776 18.3799 39.0892C18.1748 39.3008 18.0592 39.571 18.0332 39.8998H20.2549C20.2386 39.5645 20.1296 39.2927 19.9277 39.0843C19.7292 38.876 19.472 38.7718 19.1562 38.7718ZM20.2744 41.4623H21.583C21.5049 41.9766 21.2477 42.3916 20.8115 42.7074C20.3786 43.0199 19.8398 43.1761 19.1953 43.1761C18.3913 43.1761 17.7598 42.9352 17.3008 42.4535C16.8451 41.9717 16.6172 41.3109 16.6172 40.4711C16.6172 39.6345 16.8451 38.9671 17.3008 38.4691C17.7565 37.9678 18.3701 37.7171 19.1416 37.7171C19.9001 37.7171 20.5039 37.9548 20.9531 38.43C21.4023 38.9053 21.627 39.5417 21.627 40.3392V40.7738H18.0186V40.8617C18.0186 41.236 18.1276 41.5404 18.3457 41.7748C18.5671 42.0059 18.8584 42.1214 19.2197 42.1214C19.4801 42.1214 19.7048 42.0629 19.8936 41.9457C20.0824 41.8252 20.2093 41.6641 20.2744 41.4623ZM22.3643 43.0638V37.8295H23.7412V38.7767H23.7705C23.8812 38.4577 24.07 38.2038 24.3369 38.015C24.6038 37.8262 24.9131 37.7318 25.2646 37.7318C25.6423 37.7318 25.958 37.8262 26.2119 38.015C26.4658 38.2005 26.6367 38.4642 26.7246 38.806H26.7539C26.8711 38.4772 27.0745 38.2168 27.3643 38.0248C27.6572 37.8295 27.9958 37.7318 28.3799 37.7318C28.8942 37.7318 29.3076 37.8929 29.6201 38.2152C29.9359 38.5375 30.0938 38.9623 30.0938 39.4896V43.0638H28.668V39.8461C28.668 39.5433 28.5947 39.3122 28.4482 39.1527C28.3018 38.9899 28.0902 38.9086 27.8135 38.9086C27.5433 38.9086 27.3252 38.9981 27.1592 39.1771C26.9964 39.3561 26.915 39.5921 26.915 39.8851V43.0638H25.543V39.8021C25.543 39.5222 25.4681 39.3041 25.3184 39.1478C25.1686 38.9883 24.9619 38.9086 24.6982 38.9086C24.4281 38.9086 24.2083 39.0013 24.0391 39.1869C23.873 39.3724 23.79 39.6117 23.79 39.9046V43.0638H22.3643ZM33.3457 38.7718C33.0365 38.7718 32.7777 38.8776 32.5693 39.0892C32.3643 39.3008 32.2487 39.571 32.2227 39.8998H34.4443C34.4281 39.5645 34.319 39.2927 34.1172 39.0843C33.9186 38.876 33.6615 38.7718 33.3457 38.7718ZM34.4639 41.4623H35.7725C35.6943 41.9766 35.4372 42.3916 35.001 42.7074C34.568 43.0199 34.0293 43.1761 33.3848 43.1761C32.5807 43.1761 31.9492 42.9352 31.4902 42.4535C31.0345 41.9717 30.8066 41.3109 30.8066 40.4711C30.8066 39.6345 31.0345 38.9671 31.4902 38.4691C31.946 37.9678 32.5596 37.7171 33.3311 37.7171C34.0895 37.7171 34.6934 37.9548 35.1426 38.43C35.5918 38.9053 35.8164 39.5417 35.8164 40.3392V40.7738H32.208V40.8617C32.208 41.236 32.3171 41.5404 32.5352 41.7748C32.7565 42.0059 33.0479 42.1214 33.4092 42.1214C33.6696 42.1214 33.8942 42.0629 34.083 41.9457C34.2718 41.8252 34.3988 41.6641 34.4639 41.4623ZM38.3945 41.057H39.8154C39.848 41.3434 39.9993 41.5762 40.2695 41.7552C40.543 41.931 40.8766 42.0189 41.2705 42.0189C41.6611 42.0189 41.9785 41.9359 42.2227 41.7699C42.4701 41.6006 42.5938 41.3858 42.5938 41.1254C42.5938 40.8975 42.5026 40.7136 42.3203 40.5736C42.138 40.4336 41.8337 40.3164 41.4072 40.222L40.4893 40.0218C39.1969 39.7451 38.5508 39.0892 38.5508 38.0541C38.5508 37.4095 38.8014 36.8887 39.3027 36.4916C39.8073 36.0944 40.4551 35.8959 41.2461 35.8959C42.0599 35.8959 42.7093 36.0895 43.1943 36.4769C43.6794 36.861 43.9284 37.3737 43.9414 38.015H42.5596C42.5368 37.7188 42.4049 37.486 42.1641 37.3168C41.9264 37.1442 41.6221 37.058 41.251 37.058C40.8864 37.058 40.5918 37.1377 40.3672 37.2972C40.1458 37.4567 40.0352 37.6667 40.0352 37.9271C40.0352 38.142 40.1247 38.3161 40.3037 38.4496C40.486 38.583 40.7806 38.697 41.1875 38.7914L42.042 38.972C42.7484 39.1218 43.2627 39.3561 43.585 39.6752C43.9072 39.9909 44.0684 40.4173 44.0684 40.9545C44.0684 41.638 43.8112 42.1817 43.2969 42.5853C42.7826 42.9857 42.0876 43.1859 41.2119 43.1859C40.3623 43.1859 39.6852 42.9971 39.1807 42.6195C38.6794 42.2386 38.4173 41.7178 38.3945 41.057ZM45.2354 36.6234H46.6611V37.8295H47.6279V38.9037H46.6611V41.4086C46.6611 41.8024 46.8662 41.9994 47.2764 41.9994C47.4098 41.9994 47.5254 41.9912 47.623 41.975V43.0248C47.457 43.0638 47.2308 43.0834 46.9443 43.0834C46.3291 43.0834 45.8896 42.9727 45.626 42.7513C45.3656 42.53 45.2354 42.1638 45.2354 41.6527V38.9037H44.498V37.8295H45.2354V36.6234ZM52.6279 42.4535C52.1624 42.9352 51.5309 43.1761 50.7334 43.1761C49.9359 43.1761 49.3044 42.9336 48.8389 42.4486C48.3734 41.9636 48.1406 41.2946 48.1406 40.4418C48.1406 39.5987 48.375 38.9346 48.8438 38.4496C49.3158 37.9613 49.9456 37.7171 50.7334 37.7171C51.5244 37.7171 52.1543 37.9613 52.623 38.4496C53.0918 38.9346 53.3262 39.5987 53.3262 40.4418C53.3262 41.2979 53.0934 41.9684 52.6279 42.4535ZM50.7334 42.0873C51.085 42.0873 51.3633 41.944 51.5684 41.6576C51.7734 41.3711 51.876 40.9675 51.876 40.4466C51.876 39.9323 51.7734 39.5303 51.5684 39.2406C51.3633 38.9509 51.085 38.806 50.7334 38.806C50.3818 38.806 50.1019 38.9509 49.8936 39.2406C49.6885 39.5303 49.5859 39.9323 49.5859 40.4466C49.5859 40.9675 49.6885 41.3711 49.8936 41.6576C50.0986 41.944 50.3786 42.0873 50.7334 42.0873ZM54.0635 43.0638V37.8295H55.4404V38.7718H55.4697C55.5609 38.4398 55.7139 38.1859 55.9287 38.0101C56.1436 37.8343 56.4056 37.7464 56.7148 37.7464C56.8646 37.7464 56.9997 37.7643 57.1201 37.8002V39.055C56.9867 38.9997 56.8141 38.972 56.6025 38.972C56.251 38.972 55.9775 39.0746 55.7822 39.2796C55.5869 39.4847 55.4893 39.7712 55.4893 40.139V43.0638H54.0635ZM59.8789 38.7718C59.5697 38.7718 59.3109 38.8776 59.1025 39.0892C58.8975 39.3008 58.7819 39.571 58.7559 39.8998H60.9775C60.9613 39.5645 60.8522 39.2927 60.6504 39.0843C60.4518 38.876 60.1947 38.7718 59.8789 38.7718ZM60.9971 41.4623H62.3057C62.2275 41.9766 61.9704 42.3916 61.5342 42.7074C61.1012 43.0199 60.5625 43.1761 59.918 43.1761C59.1139 43.1761 58.4824 42.9352 58.0234 42.4535C57.5677 41.9717 57.3398 41.3109 57.3398 40.4711C57.3398 39.6345 57.5677 38.9671 58.0234 38.4691C58.4792 37.9678 59.0928 37.7171 59.8643 37.7171C60.6227 37.7171 61.2266 37.9548 61.6758 38.43C62.125 38.9053 62.3496 39.5417 62.3496 40.3392V40.7738H58.7412V40.8617C58.7412 41.236 58.8503 41.5404 59.0684 41.7748C59.2897 42.0059 59.5811 42.1214 59.9424 42.1214C60.2028 42.1214 60.4274 42.0629 60.6162 41.9457C60.805 41.8252 60.932 41.6641 60.9971 41.4623Z" fill="#2D334D"/>
<defs>
<linearGradient id="paint0_linear_19_6550" x1="19.5" y1="0" x2="46.3697" y2="23.8278" gradientUnits="userSpaceOnUse">
<stop stop-color="#E55C61"/>
<stop offset="1" stop-color="#E57A61"/>
</linearGradient>
<linearGradient id="paint1_linear_19_6550" x1="19.5" y1="0" x2="46.3697" y2="23.8278" gradientUnits="userSpaceOnUse">
<stop stop-color="#E55C61"/>
<stop offset="1" stop-color="#E57A61"/>
</linearGradient>
</defs>
</svg>
