<svg width="24" height="24" viewBox="0 0 24 24" fill="none" xmlns="http://www.w3.org/2000/svg">
<path d="M14.9072 17.5385V18.2308C14.9072 18.9652 14.6009 19.6696 14.0558 20.1889C13.5107 20.7082 12.7714 21 12.0005 21C11.2297 21 10.4903 20.7082 9.94525 20.1889C9.40015 19.6696 9.09392 18.9652 9.09392 18.2308V17.5385M19.7976 16.1292C18.6313 14.7692 17.8079 14.0769 17.8079 10.3276C17.8079 6.89423 15.9676 5.67101 14.453 5.07692C14.2518 4.99817 14.0624 4.81731 14.0011 4.62043C13.7354 3.75894 12.9906 3 12.0005 3C11.0105 3 10.2652 3.75938 10.0022 4.6213C9.94093 4.82034 9.75154 4.99817 9.55035 5.07692C8.03391 5.67187 6.19546 6.89077 6.19546 10.3276C6.19319 14.0769 5.3698 14.7692 4.20352 16.1292C3.72029 16.6925 4.14357 17.5385 4.98876 17.5385H19.0169C19.8575 17.5385 20.2781 16.69 19.7976 16.1292Z" stroke="#505F8D" stroke-linecap="round" stroke-linejoin="round"/>
<circle cx="18" cy="6" r="3" fill="url(#paint0_linear_7_5935)"/>
<defs>
<linearGradient id="paint0_linear_7_5935" x1="15" y1="3" x2="21" y2="9" gradientUnits="userSpaceOnUse">
<stop stop-color="#E55C61"/>
<stop offset="1" stop-color="#E57A61"/>
</linearGradient>
</defs>
</svg>
